<svg width='200' height='200' fill="#000000" xmlns="http://www.w3.org/2000/svg" data-name="Layer 1" viewBox="0 0 100 100" x="0px" y="0px"><title>57</title><g data-name="Group"><path data-name="Compound Path" d="M91.3,7.5a3,3,0,0,0-4.1-.1L28.7,60l-.5.5c-4,1-9.1,4.3-12.9,13.4-3.1,7.5-8.1,10.4-9.3,10.8a3,3,0,0,0-1,5.8,43.9,43.9,0,0,0,14.8,2.9,23.5,23.5,0,0,0,11.5-2.8c5.3-2.9,9-8,11.1-15.1a3,3,0,0,0,1-.7L96.1,16.3a3,3,0,0,0-.1-4.1ZM28.5,85.4c-3.8,2.1-8.9,2.5-14.9,1.3a30,30,0,0,0,7.3-10.5c2.5-5.9,5.8-9.4,9.5-10L37,72.8C35.4,78.9,32.6,83.2,28.5,85.4Zm12.6-17L35,62.3l54-48.6.7.7Z"/></g></svg>