<svg width='200' height='200' fill="#000000" xmlns="http://www.w3.org/2000/svg" xmlns:xlink="http://www.w3.org/1999/xlink" version="1.1" x="0px" y="0px" viewBox="0 0 100 100" enable-background="new 0 0 100 100" xml:space="preserve"><path d="M83.416,23.565l-16.582-19.5c-0.027-0.032-0.063-0.056-0.093-0.088c-0.099-0.107-0.206-0.205-0.317-0.3  c-0.072-0.062-0.142-0.125-0.219-0.181c-0.125-0.09-0.259-0.164-0.396-0.237c-0.074-0.04-0.145-0.086-0.222-0.12  c-0.16-0.071-0.331-0.123-0.504-0.17c-0.061-0.017-0.119-0.043-0.182-0.057c-0.237-0.051-0.482-0.08-0.734-0.08H22.667  c-4.687,0-8.5,3.813-8.5,8.5V89c0,4.687,3.813,8.5,8.5,8.5H75.75c4.687,0,8.5-3.813,8.5-8.5V25.833  C84.25,25.002,83.954,24.198,83.416,23.565z M67.668,15.852l5.547,6.523h-5.547V15.852z M75.75,90.5H22.667  c-0.827,0-1.5-0.673-1.5-1.5V11.333c0-0.827,0.673-1.5,1.5-1.5h38.001v16.042c0,1.933,1.567,3.5,3.5,3.5H77.25V89  C77.25,89.827,76.577,90.5,75.75,90.5z"/></svg>