<svg width='200' height='200' fill="#000000" xmlns="http://www.w3.org/2000/svg" xmlns:xlink="http://www.w3.org/1999/xlink" version="1.1" x="0px" y="0px" viewBox="0 0 100 100" style="enable-background:new 0 0 100 100;" xml:space="preserve"><path d="M50,48.5c9.1,0,16.5-7.5,16.5-16.7c0-9.2-7.4-16.7-16.5-16.7s-16.5,7.5-16.5,16.7C33.5,41.1,40.9,48.5,50,48.5z M50,19.2  c6.9,0,12.5,5.7,12.5,12.7c0,7-5.6,12.7-12.5,12.7s-12.5-5.7-12.5-12.7C37.5,24.9,43.1,19.2,50,19.2z M27.1,66.9v13.9h32.8  c1.1,0,2,0.9,2,2s-0.9,2-2,2H25.1c-1.1,0-2-0.9-2-2V66.9c0-7.7,6.3-14,14-14h25.8c4.9,0,9.3,2.5,11.9,6.6c1.4,2.2,2.1,4.8,2.1,7.4  v0.9c0,1.1-0.9,2-2,2s-2-0.9-2-2v-0.9c0-1.9-0.5-3.7-1.5-5.3c-1.8-3-5-4.7-8.5-4.7H37.1C31.6,56.9,27.1,61.4,27.1,66.9z M84.5,82.1  l-1.7,2.7c-0.2,0.5-0.6,0.9-1.1,1.1c-0.6,0.3-1.3,0.2-1.9-0.2L77,83.9c-0.9-0.6-1.2-1.8-0.6-2.8c0.4-0.6,1.1-1,1.8-0.9  c-0.8-1.2-2.2-2-3.8-2c-2.5,0-4.6,2.1-4.6,4.6s2.1,4.6,4.6,4.6c0.6,0,1.2-0.1,1.8-0.4c1-0.4,2.2,0,2.6,1.1c0.4,1,0,2.2-1.1,2.6  c-1.1,0.5-2.2,0.7-3.4,0.7c-4.7,0-8.6-3.9-8.6-8.6s3.9-8.6,8.6-8.6c3.4,0,6.4,2,7.8,4.9c0.5-0.2,1.2-0.1,1.7,0.2  C84.9,79.9,85.1,81.2,84.5,82.1z"/></svg>